<svg xmlns="http://www.w3.org/2000/svg" width="256" height="256" viewBox="0 0 100 100"><rect width="100" height="100" rx="50" fill="#0059a4"></rect><path d="M22.55 33.71Q25.98 33.71 28.73 35.03Q31.48 36.35 33.06 38.63Q34.63 40.91 34.63 43.68L34.63 43.68Q34.63 47.11 32.63 49.74Q30.64 52.37 27.32 53.78Q24.01 55.19 20.20 55.19L20.20 55.19Q18.60 55.19 17.10 54.94Q15.60 54.68 14.70 54.39L14.70 54.39L12.92 63.79Q12.68 65.16 11.58 66.03Q10.47 66.90 8.88 66.90L8.88 66.90Q7.51 66.90 6.71 66.29Q5.91 65.67 5.91 64.45L5.91 64.45Q5.91 64.17 6.01 63.61L6.01 63.61L6.48 61.16Q7.70 55.15 8.12 52.66L8.12 52.66Q8.92 48.19 9.72 42.46L9.72 42.46L9.53 42.55Q9.06 42.79 8.64 42.79L8.64 42.79Q7.98 42.79 7.61 42.17Q7.23 41.56 7.23 40.62L7.23 40.62Q7.23 39.31 7.91 38.56Q8.59 37.80 10.10 37.00L10.10 37.00Q10.19 36.96 10.31 36.89Q10.43 36.82 10.52 36.77L10.52 36.77L10.61 36.16Q10.85 34.65 11.84 33.88Q12.82 33.10 14.70 33.10L14.70 33.10Q16.58 33.10 17.24 33.43Q17.90 33.76 17.85 34.18L17.85 34.18L17.85 34.23Q20.20 33.71 22.55 33.71L22.55 33.71ZM20.01 49.65Q21.85 49.65 23.42 48.83Q25.00 48.00 25.91 46.62Q26.83 45.23 26.83 43.68L26.83 43.68Q26.83 41.80 25.30 40.74Q23.77 39.68 21.28 39.68L21.28 39.68Q19.50 39.68 17.01 40.25L17.01 40.25L16.63 42.27Q16.35 43.73 16.16 45.11Q15.97 46.50 15.93 46.97L15.93 46.97L15.69 48.75Q16.30 49.08 17.59 49.37Q18.89 49.65 20.01 49.65L20.01 49.65ZM63.96 33.48Q65.23 33.48 66.05 34.30Q66.87 35.12 66.87 36.11L66.87 36.11Q66.87 36.96 66.47 37.73Q66.07 38.51 65.37 38.93L65.37 38.93Q63.54 40.11 57.66 43.54L57.66 43.54L56.39 44.29L48.12 49.04Q50.47 51.15 54.09 54.68L54.09 54.68L56.81 57.36Q57.52 58.06 58.41 58.93Q59.31 59.80 60.43 60.88L60.43 60.88Q61.37 61.82 61.37 62.90L61.37 62.90Q61.37 64.36 60.13 65.51Q58.88 66.66 57.29 66.66L57.29 66.66Q56.20 66.66 55.31 66.00L55.31 66.00L49.48 59.85L44.78 54.91Q44.36 56.93 44.13 58.27Q43.89 59.61 43.70 60.55L43.70 60.55L43.23 63.09Q42.95 64.64 41.85 65.60Q40.74 66.57 39.19 66.57L39.19 66.57Q37.83 66.57 37.05 65.98Q36.28 65.39 36.28 64.36L36.28 64.36Q36.28 64.08 36.32 63.89L36.32 63.89Q37.31 58.34 38.95 49.88L38.95 49.88Q39.47 47.20 39.90 44.57Q40.32 41.94 40.51 40.86L40.51 40.86L41.16 36.53Q41.40 35.22 42.53 34.37Q43.66 33.53 45.21 33.53L45.21 33.53Q46.57 33.53 47.32 34.23Q48.07 34.94 48.07 36.06L48.07 36.06Q48.07 36.44 48.03 36.68L48.03 36.68L46.85 43.68L53.20 39.59L61.66 34.14Q62.64 33.48 63.96 33.48L63.96 33.48ZM79.52 66.52Q76.13 66.52 73.52 65.32Q70.91 64.12 69.48 61.98Q68.05 59.85 68.05 57.12L68.05 57.12Q68.05 52.56 72.23 52.56L72.23 52.56Q74.06 52.56 74.63 53.29Q75.19 54.02 75.19 55.01L75.19 55.01Q75.19 56.70 75.45 57.83Q75.71 58.95 76.67 59.68Q77.64 60.41 79.52 60.41L79.52 60.41Q81.77 60.41 83.35 59.42Q84.92 58.44 84.92 56.84L84.92 56.84Q84.92 55.71 84.12 55.01Q83.32 54.30 82.41 53.95Q81.49 53.60 79.33 52.89L79.33 52.89Q70.21 49.93 70.21 43.54L70.21 43.54Q70.21 40.58 71.97 38.20Q73.73 35.83 76.67 34.49Q79.61 33.15 83.04 33.15L83.04 33.15Q86.19 33.15 88.70 34.30Q91.22 35.45 92.65 37.45Q94.09 39.45 94.09 41.99L94.09 41.99Q94.09 44.15 93.05 45.16Q92.02 46.17 89.90 46.17L89.90 46.17Q88.26 46.17 87.72 45.61Q87.18 45.04 87.18 43.77L87.18 43.77Q87.18 41.61 86.10 40.41Q85.02 39.21 82.90 39.21L82.90 39.21Q81.35 39.21 80.01 39.82Q78.67 40.44 77.89 41.47Q77.12 42.50 77.12 43.68L77.12 43.68Q77.12 44.48 77.61 44.97Q78.11 45.46 79.12 45.84Q80.13 46.22 83.04 47.20L83.04 47.20Q85.30 47.96 87.13 48.94Q88.96 49.93 90.40 51.83Q91.83 53.74 91.83 56.65L91.83 56.65Q91.83 59.75 90.14 61.98Q88.45 64.22 85.63 65.37Q82.81 66.52 79.52 66.52L79.52 66.52Z" fill="#ffffff"></path></svg>