<?xml version="1.0" standalone="no"?>
<!DOCTYPE svg PUBLIC "-//W3C//DTD SVG 20010904//EN"
 "http://www.w3.org/TR/2001/REC-SVG-20010904/DTD/svg10.dtd">
<svg version="1.0" xmlns="http://www.w3.org/2000/svg"
 width="167.000000pt" height="155.000000pt" viewBox="0 0 167.000000 155.000000"
 preserveAspectRatio="xMidYMid meet">

<g transform="translate(0.000000,155.000000) scale(0.100000,-0.100000)"
fill="#000000" stroke="none">
<path d="M780 1364 c-36 -13 -85 -31 -109 -40 l-43 -17 116 -44 116 -44 116
44 c85 32 111 46 97 51 -72 29 -207 76 -217 76 -6 -1 -40 -12 -76 -26z"/>
<path d="M602 1114 l3 -156 118 -43 117 -42 0 153 0 153 -52 19 c-29 11 -83
32 -121 46 l-68 25 3 -155z"/>
<path d="M1070 1250 c-25 -9 -78 -29 -117 -44 l-73 -28 0 -153 0 -152 118 42
117 43 3 81 c2 45 2 115 0 155 l-3 74 -45 -18z"/>
<path d="M202 608 c3 -202 3 -203 26 -206 21 -3 22 -1 22 75 l0 78 159 0 c202
0 201 -1 201 127 0 131 5 128 -225 128 l-185 0 2 -202z m352 149 c14 -10 16
-25 14 -82 l-3 -70 -155 0 -155 0 -3 68 c-2 42 2 74 9 83 16 19 267 20 293 1z"/>
<path d="M660 605 c0 -198 1 -205 20 -205 19 0 20 7 20 90 l0 90 69 0 68 0 77
-90 c59 -70 82 -90 102 -90 31 0 31 1 -63 112 -40 47 -73 90 -73 95 0 4 23 35
51 68 28 33 64 77 80 98 l31 37 -29 0 c-23 0 -41 -16 -103 -90 l-74 -90 -68 0
-68 0 0 90 c0 83 -1 90 -20 90 -19 0 -20 -7 -20 -205z"/>
<path d="M1130 790 c-16 -16 -20 -33 -20 -93 0 -109 3 -111 199 -117 l156 -5
0 -60 0 -60 -153 -3 c-129 -2 -153 0 -158 13 -8 21 -44 19 -44 -2 0 -24 10
-38 37 -52 26 -14 291 -15 326 -2 33 13 51 69 43 134 -9 80 -13 81 -199 87
l-162 5 -3 53 c-5 80 -1 82 153 82 141 0 165 -4 165 -26 0 -8 10 -14 24 -14
19 0 22 4 18 25 -9 49 -33 55 -204 55 -145 0 -160 -2 -178 -20z"/>
<path d="M590 341 c0 -5 5 -13 10 -16 6 -3 10 -2 10 4 0 5 -4 13 -10 16 -5 3
-10 2 -10 -4z"/>
<path d="M652 344 c9 -3 19 -13 22 -22 3 -12 4 -12 3 3 -1 12 -10 21 -22 22
-15 1 -15 0 -3 -3z"/>
<path d="M702 313 c1 -37 1 -37 5 -5 5 35 18 43 27 15 4 -14 4 -14 3 2 -1 11
-10 21 -20 23 -14 3 -17 -3 -15 -35z"/>
<path d="M781 313 c0 -21 3 -31 6 -23 3 8 11 18 17 22 8 5 7 8 -1 8 -19 0 -16
18 5 23 13 4 11 5 -5 6 -20 1 -23 -4 -22 -36z"/>
<path d="M862 336 c7 -8 15 -12 17 -11 5 6 -10 25 -20 25 -5 0 -4 -6 3 -14z"/>
<path d="M902 313 l1 -38 4 33 c3 25 8 32 19 28 9 -3 12 -1 9 4 -3 6 -13 10
-21 10 -10 0 -14 -11 -12 -37z"/>
<path d="M1006 333 c-6 -15 -9 -15 -17 -3 -9 12 -10 12 -5 -3 3 -10 6 -26 6
-35 1 -9 7 -2 16 17 8 19 13 36 10 38 -2 2 -7 -4 -10 -14z"/>
<path d="M1050 346 c0 -2 7 -7 16 -10 8 -3 12 -2 9 4 -6 10 -25 14 -25 6z"/>
<path d="M1100 321 c0 -17 4 -32 8 -35 4 -2 6 11 4 30 -5 42 -12 45 -12 5z"/>
<path d="M1139 318 c-3 -22 -1 -34 4 -29 5 5 7 21 5 37 -3 27 -4 26 -9 -8z"/>
<path d="M1031 317 c-1 -30 23 -47 41 -29 8 8 5 9 -10 5 -17 -4 -21 0 -25 24
l-4 28 -2 -28z"/>
<path d="M323 313 c43 -2 110 -2 150 0 40 1 5 3 -78 3 -82 0 -115 -2 -72 -3z"/>
<path d="M580 310 c0 -4 9 -10 20 -13 11 -3 20 -2 20 3 0 4 -9 10 -20 13 -11
3 -20 2 -20 -3z"/>
<path d="M926 312 c-2 -4 -1 -14 4 -22 7 -11 9 -9 7 8 -1 24 -3 26 -11 14z"/>
<path d="M1253 313 c43 -2 110 -2 150 0 40 1 5 3 -78 3 -82 0 -115 -2 -72 -3z"/>
<path d="M830 302 c0 -18 29 -27 43 -13 9 9 8 11 -7 5 -11 -4 -21 -2 -27 7 -6
10 -9 11 -9 1z"/>
</g>
</svg>
